<svg xmlns="http://www.w3.org/2000/svg" width="48" height="48" viewBox="0 0 48 48"><g transform="translate(-10485 242)"><g transform="translate(10309 -493)"><rect width="48" height="48" transform="translate(176 251)" fill="none"/><path d="M19.406,1.323H2.514a1.3,1.3,0,1,0,0,2.608H19.339a1.3,1.3,0,1,0,.069-2.608ZM2.514,11.751a1.3,1.3,0,0,0,0,2.606h9.524a1.3,1.3,0,1,0,0-2.606Zm0,10.427a1.3,1.3,0,1,0,0,2.606H23.856a1.3,1.3,0,1,0,0-2.606Z" transform="translate(186.841 261.678)" fill="#175aa9"/></g></g></svg>