<svg xmlns="http://www.w3.org/2000/svg" width="48" height="48" viewBox="0 0 48 48"><g transform="translate(-10485 164)"><path d="M24,25.25a1.246,1.246,0,0,1-.884-.366l-24-24a1.25,1.25,0,0,1,0-1.768,1.25,1.25,0,0,1,1.768,0l24,24A1.25,1.25,0,0,1,24,25.25Z" transform="translate(10497 -152.5)" fill="#175aa9"/><path d="M0,25.25a1.246,1.246,0,0,1-.884-.366,1.25,1.25,0,0,1,0-1.768l24-24a1.25,1.25,0,0,1,1.768,0,1.25,1.25,0,0,1,0,1.768l-24,24A1.246,1.246,0,0,1,0,25.25Z" transform="translate(10497 -152.5)" fill="#175aa9"/><rect width="48" height="48" transform="translate(10485 -164)" fill="none"/></g></svg>