<svg xmlns="http://www.w3.org/2000/svg" xmlns:xlink="http://www.w3.org/1999/xlink" width="45" height="45" viewBox="0 0 45 45"><defs><linearGradient id="a" x1="0.5" x2="0.5" y2="1" gradientUnits="objectBoundingBox"><stop offset="0" stop-color="#29abe2"/><stop offset="1" stop-color="#1e5caa"/></linearGradient><clipPath id="c"><rect width="45" height="45"/></clipPath></defs><g id="b" clip-path="url(#c)"><circle cx="22.5" cy="22.5" r="22.5" fill="url(#a)"/><g transform="translate(8.302 8.301)"><path d="M22.633,35.581A12.952,12.952,0,0,1,43.609,25.412H41.639a.648.648,0,1,0,0,1.3H45.3a.648.648,0,0,0,.648-.648V22.4a.648.648,0,1,0-1.3,0v2.193A14.25,14.25,0,0,0,25.511,45.657a.648.648,0,1,0,.916-.916,12.869,12.869,0,0,1-3.794-9.16Z" transform="translate(-21.338 -21.331)" fill="#fff"/><path d="M130.812,437.346c-.367-.179-.731-.378-1.081-.591a.648.648,0,0,0-.675,1.106c.385.235.785.454,1.19.65a.648.648,0,0,0,.566-1.165Z" transform="translate(-122.224 -411.44)" fill="#fff"/><path d="M437.469,131.01a.648.648,0,1,0,1.166-.565c-.2-.4-.413-.8-.648-1.19a.648.648,0,0,0-1.107.673C437.094,130.279,437.292,130.643,437.469,131.01Z" transform="translate(-411.558 -122.409)" fill="#fff"/><path d="M252.647,467.765c-.409.049-.823.078-1.23.087a.648.648,0,0,0,.015,1.295h.015c.448-.01.9-.043,1.351-.1a.648.648,0,1,0-.152-1.286Z" transform="translate(-236.861 -440.652)" fill="#fff"/><path d="M189.364,462.01c-.4-.067-.808-.155-1.2-.261a.648.648,0,0,0-.335,1.252c.436.116.882.213,1.325.287a.648.648,0,1,0,.213-1.278Z" transform="translate(-177.265 -434.984)" fill="#fff"/><path d="M468.483,250.854a.648.648,0,0,0-.664.632c-.01.41-.04.823-.089,1.23a.648.648,0,0,0,.566.72.716.716,0,0,0,.078,0,.648.648,0,0,0,.642-.571c.053-.447.086-.9.1-1.351A.648.648,0,0,0,468.483,250.854Z" transform="translate(-440.62 -236.917)" fill="#fff"/><path d="M419.78,371.136a.649.649,0,0,0-.9.172c-.23.339-.479.671-.74.986a.648.648,0,1,0,1,.826c.287-.347.561-.711.814-1.084A.648.648,0,0,0,419.78,371.136Z" transform="translate(-393.905 -349.79)" fill="#fff"/><path d="M461.813,188.369c.1.394.192.8.26,1.2a.648.648,0,0,0,.638.542.66.66,0,0,0,.107-.009.648.648,0,0,0,.533-.745c-.074-.445-.17-.891-.285-1.325a.648.648,0,1,0-1.252.333Z" transform="translate(-435.046 -177.461)" fill="#fff"/><path d="M372.1,418.292c-.317.262-.648.511-.986.739a.648.648,0,1,0,.727,1.072c.371-.251.736-.525,1.084-.813a.648.648,0,0,0-.825-1Z" transform="translate(-349.607 -394.048)" fill="#fff"/><path d="M452.524,313.741a.648.648,0,0,0-.814.42c-.124.389-.269.777-.43,1.154a.648.648,0,1,0,1.19.51c.178-.415.338-.843.474-1.271A.647.647,0,0,0,452.524,313.741Z" transform="translate(-425.123 -295.956)" fill="#fff"/><path d="M315.1,451.37c-.374.16-.762.3-1.154.43a.648.648,0,0,0,.393,1.234c.432-.138.859-.3,1.271-.473a.648.648,0,1,0-.51-1.191Z" transform="translate(-295.758 -425.208)" fill="#fff"/><path d="M90.216,199.558a2.2,2.2,0,0,0-1.778-2.167A2.7,2.7,0,0,0,85.4,198.82a.648.648,0,0,0,1.159.579,1.391,1.391,0,0,1,1.583-.748.94.94,0,0,1,.781.906c0,.676-.78,1.2-1.606,1.748-.93.621-1.984,1.324-1.984,2.49a.648.648,0,0,0,.648.648h3.59a.648.648,0,1,0,0-1.3H87a8.187,8.187,0,0,1,1.031-.765C89.057,201.7,90.216,200.926,90.216,199.558Z" transform="translate(-81.444 -186.631)" fill="#fff"/><path d="M177.751,196.07a.648.648,0,0,0-.648-.648h-.526v-3.441a.648.648,0,0,0-1.153-.405l-3.279,4.089a.648.648,0,0,0,.505,1.053h2.631v1.822a.648.648,0,1,0,1.3,0v-1.822h.526A.648.648,0,0,0,177.751,196.07Zm-2.469-.648H174l1.281-1.6Z" transform="translate(-162.854 -181.011)" fill="#fff"/><path d="M286.731,185.344a.646.646,0,0,0-.762.508l-1.457,7.287a.648.648,0,0,0,.508.762.655.655,0,0,0,.128.013.648.648,0,0,0,.634-.521l1.457-7.287A.647.647,0,0,0,286.731,185.344Z" transform="translate(-268.519 -175.373)" fill="#fff"/><path d="M352.83,204.458a.648.648,0,0,0,.6-.4l2.429-5.829a.648.648,0,0,0-.6-.9h-3.279a.648.648,0,1,0,0,1.3h2.307l-2.055,4.933a.649.649,0,0,0,.6.9Z" transform="translate(-331.295 -186.646)" fill="#fff"/></g></g></svg>