<svg xmlns="http://www.w3.org/2000/svg" xmlns:xlink="http://www.w3.org/1999/xlink" width="99" height="99" viewBox="0 0 99 99"><defs><linearGradient id="a" x1="0.5" x2="0.5" y2="1" gradientUnits="objectBoundingBox"><stop offset="0" stop-color="#29abe2"/><stop offset="1" stop-color="#1e5caa"/></linearGradient><clipPath id="c"><rect width="99" height="99"/></clipPath></defs><g id="b" clip-path="url(#c)"><circle cx="49.5" cy="49.5" r="49.5" fill="url(#a)"/><g transform="translate(-3.114 -3.108)"><path d="M24.181,52.613A28.433,28.433,0,0,1,70.229,30.289H65.9a1.422,1.422,0,1,0,0,2.844h8.043a1.422,1.422,0,0,0,1.422-1.422V23.667a1.422,1.422,0,1,0-2.844,0v4.815A31.281,31.281,0,0,0,30.5,74.732a1.422,1.422,0,1,0,2.011-2.011,28.252,28.252,0,0,1-8.329-20.108Z" fill="#fff"/><path d="M133.281,438.166c-.807-.392-1.605-.829-2.373-1.3a1.422,1.422,0,1,0-1.482,2.427c.845.516,1.724,1,2.612,1.427a1.422,1.422,0,0,0,1.243-2.558Z" transform="translate(-93.09 -359.965)" fill="#fff"/><path d="M438.287,133.479a1.422,1.422,0,0,0,2.559-1.24c-.428-.885-.907-1.764-1.423-2.613a1.422,1.422,0,1,0-2.43,1.478C437.462,131.876,437.9,132.675,438.287,133.479Z" transform="translate(-360.068 -93.268)" fill="#fff"/><path d="M254.861,467.771c-.9.107-1.806.17-2.7.192a1.422,1.422,0,0,0,.033,2.842h.034c.983-.023,1.981-.093,2.967-.21a1.422,1.422,0,1,0-.333-2.824Z" transform="translate(-198.869 -386.92)" fill="#fff"/><path d="M191.778,462.348c-.884-.148-1.774-.34-2.643-.573a1.422,1.422,0,0,0-.734,2.748c.957.256,1.936.467,2.91.63a1.422,1.422,0,1,0,.468-2.8Z" transform="translate(-143.878 -381.69)" fill="#fff"/><path d="M469.388,250.854a1.422,1.422,0,0,0-1.457,1.386c-.023.9-.088,1.807-.2,2.7a1.423,1.423,0,0,0,1.243,1.581,1.572,1.572,0,0,0,.171.01,1.422,1.422,0,0,0,1.41-1.253c.117-.981.189-1.979.213-2.967A1.422,1.422,0,0,0,469.388,250.854Z" transform="translate(-386.884 -198.927)" fill="#fff"/><path d="M421.919,371.27a1.424,1.424,0,0,0-1.975.377c-.505.744-1.052,1.472-1.625,2.164a1.421,1.421,0,1,0,2.19,1.813c.63-.761,1.232-1.561,1.788-2.379A1.421,1.421,0,0,0,421.919,371.27Z" transform="translate(-343.779 -303.079)" fill="#fff"/><path d="M461.839,189.343c.23.866.422,1.755.57,2.644a1.422,1.422,0,0,0,1.4,1.189,1.45,1.45,0,0,0,.234-.019,1.422,1.422,0,0,0,1.17-1.636c-.162-.978-.373-1.957-.627-2.91a1.422,1.422,0,0,0-2.748.732Z" transform="translate(-381.74 -144.066)" fill="#fff"/><path d="M373.617,418.469c-.7.575-1.423,1.121-2.164,1.623a1.422,1.422,0,1,0,1.6,2.354c.815-.552,1.616-1.153,2.381-1.784a1.422,1.422,0,1,0-1.812-2.193Z" transform="translate(-302.904 -343.917)" fill="#fff"/><path d="M454.074,313.777a1.423,1.423,0,0,0-1.786.923c-.272.853-.59,1.705-.945,2.533a1.422,1.422,0,1,0,2.613,1.121c.391-.912.741-1.851,1.04-2.79A1.421,1.421,0,0,0,454.074,313.777Z" transform="translate(-372.585 -253.405)" fill="#fff"/><path d="M317.023,451.433c-.82.351-1.673.669-2.534.944a1.422,1.422,0,1,0,.864,2.709c.948-.3,1.886-.651,2.79-1.038a1.422,1.422,0,1,0-1.12-2.615Z" transform="translate(-253.215 -372.669)" fill="#fff"/><path d="M96.056,202.235a4.824,4.824,0,0,0-3.9-4.758,5.92,5.92,0,0,0-6.671,3.137,1.422,1.422,0,0,0,2.544,1.272,3.053,3.053,0,0,1,3.474-1.641,2.063,2.063,0,0,1,1.713,1.99c0,1.483-1.713,2.627-3.526,3.838-2.042,1.363-4.355,2.908-4.355,5.465a1.422,1.422,0,0,0,1.422,1.422h7.881a1.422,1.422,0,1,0,0-2.844H89a17.974,17.974,0,0,1,2.264-1.679C93.511,206.938,96.056,205.239,96.056,202.235Z" transform="translate(-55.462 -152.528)" fill="#fff"/><path d="M184.622,201.731a1.422,1.422,0,0,0-1.422-1.422h-1.155v-7.554a1.422,1.422,0,0,0-2.531-.89l-7.2,8.976a1.422,1.422,0,0,0,1.109,2.311H179.2v4a1.422,1.422,0,1,0,2.844,0v-4H183.2A1.422,1.422,0,0,0,184.622,201.731Zm-5.421-1.422h-2.813L179.2,196.8Z" transform="translate(-130.581 -147.341)" fill="#fff"/><path d="M289.4,185.359a1.419,1.419,0,0,0-1.673,1.115l-3.2,16a1.422,1.422,0,0,0,1.115,1.673,1.437,1.437,0,0,0,.28.028,1.422,1.422,0,0,0,1.393-1.143l3.2-16A1.421,1.421,0,0,0,289.4,185.359Z" transform="translate(-228.081 -142.139)" fill="#fff"/><path d="M354.62,212.974a1.423,1.423,0,0,0,1.313-.876l5.332-12.8a1.421,1.421,0,0,0-1.312-1.969h-7.2a1.422,1.422,0,1,0,0,2.844h5.065l-4.511,10.829a1.424,1.424,0,0,0,1.312,1.97Z" transform="translate(-286.007 -152.541)" fill="#fff"/></g></g></svg>