<svg xmlns="http://www.w3.org/2000/svg" xmlns:xlink="http://www.w3.org/1999/xlink" width="45" height="45" viewBox="0 0 45 45"><defs><linearGradient id="a" x1="0.5" x2="0.5" y2="1" gradientUnits="objectBoundingBox"><stop offset="0" stop-color="#29abe2"/><stop offset="1" stop-color="#1e5caa"/></linearGradient><clipPath id="c"><rect width="45" height="45"/></clipPath></defs><g id="b" clip-path="url(#c)"><circle cx="22.5" cy="22.5" r="22.5" fill="url(#a)"/><g transform="translate(11.125 9.122)"><g transform="translate(0 0)"><g transform="translate(0 0)"><path d="M60.465,4.7A45.263,45.263,0,0,1,49.575.079a.572.572,0,0,0-.582,0A44.024,44.024,0,0,1,38.1,4.7a.572.572,0,0,0-.421.552V11.1A16.825,16.825,0,0,0,42.79,23.392c2.509,2.459,5.432,3.819,6.494,3.819s3.984-1.36,6.493-3.819A16.825,16.825,0,0,0,60.886,11.1V5.25A.572.572,0,0,0,60.465,4.7Zm-.724,6.4a15.7,15.7,0,0,1-4.766,11.475,12.612,12.612,0,0,1-5.692,3.491,12.613,12.613,0,0,1-5.692-3.491A15.7,15.7,0,0,1,38.826,11.1V5.685a45.078,45.078,0,0,0,10.458-4.45A46.505,46.505,0,0,0,59.742,5.685Z" transform="translate(-37.681 0)" fill="#fff"/><path d="M84.59,99.306a.572.572,0,0,0-.742-.323c-1.023.4-2.072.774-3.119,1.1a.572.572,0,0,0-.4.546v2.21a.572.572,0,0,0,1.145,0V101.05c.94-.3,1.878-.64,2.8-1A.572.572,0,0,0,84.59,99.306Z" transform="translate(-78.061 -93.685)" fill="#fff"/><path d="M170.776,87.353a.573.573,0,0,0,.23-.048l.01,0a.572.572,0,1,0-.462-1.047l-.009,0a.572.572,0,0,0,.231,1.1Z" transform="translate(-163.159 -81.623)" fill="#fff"/><path d="M307.635,345.621a.573.573,0,0,0-.792.166,13.928,13.928,0,0,1-1.645,2.055,14.625,14.625,0,0,1-1.642,1.461.572.572,0,1,0,.694.91,15.778,15.778,0,0,0,1.771-1.575,15.06,15.06,0,0,0,1.78-2.224A.572.572,0,0,0,307.635,345.621Z" transform="translate(-289.213 -327.165)" fill="#fff"/><path d="M276.882,432.044l-.033.019a.572.572,0,1,0,.573.991l.038-.022a.572.572,0,1,0-.578-.988Z" transform="translate(-263.868 -409.009)" fill="#fff"/><path d="M126,158.82a1.861,1.861,0,0,0-2.632,2.632l3.38,3.38a1.862,1.862,0,0,0,2.632,0l7.056-7.056a1.861,1.861,0,0,0-2.632-2.632l-5.739,5.739Zm8.613-2.866a.717.717,0,1,1,1.013,1.013l-7.056,7.056a.717.717,0,0,1-1.013,0l-3.38-3.38a.717.717,0,0,1,1.013-1.013l2.468,2.468a.572.572,0,0,0,.809,0Z" transform="translate(-118.296 -146.383)" fill="#fff"/></g></g></g></g></svg>