<svg xmlns="http://www.w3.org/2000/svg" xmlns:xlink="http://www.w3.org/1999/xlink" width="99" height="99" viewBox="0 0 99 99"><defs><linearGradient id="a" x1="0.5" x2="0.5" y2="1" gradientUnits="objectBoundingBox"><stop offset="0" stop-color="#29abe2"/><stop offset="1" stop-color="#1e5caa"/></linearGradient><clipPath id="c"><rect width="99" height="99"/></clipPath></defs><g id="b" clip-path="url(#c)"><g transform="translate(-1471 -1101)"><circle cx="49.5" cy="49.5" r="49.5" transform="translate(1471 1101)" fill="url(#a)"/><g transform="translate(1457.793 1121.069)"><g transform="translate(37.681 0)"><g transform="translate(0 0)"><path d="M87.806,10.337A99.579,99.579,0,0,1,63.847.175a1.259,1.259,0,0,0-1.28,0,96.852,96.852,0,0,1-23.96,10.162,1.259,1.259,0,0,0-.926,1.215V24.418a37.015,37.015,0,0,0,11.24,27.044c5.521,5.409,11.951,8.4,14.286,8.4s8.765-2.991,14.286-8.4a37.015,37.015,0,0,0,11.24-27.044V11.551A1.259,1.259,0,0,0,87.806,10.337ZM86.214,24.418A34.546,34.546,0,0,1,75.73,49.663C70.3,54.982,64.5,57.344,63.207,57.344s-7.095-2.362-12.523-7.681A34.547,34.547,0,0,1,40.2,24.418V12.507A99.172,99.172,0,0,0,63.207,2.718a102.311,102.311,0,0,0,23.007,9.789Z" transform="translate(-37.681 0)" fill="#fff"/><path d="M89.705,99.741a1.259,1.259,0,0,0-1.633-.71c-2.25.886-4.558,1.7-6.863,2.425a1.259,1.259,0,0,0-.882,1.2v4.863a1.259,1.259,0,1,0,2.518,0v-3.943c2.067-.669,4.132-1.409,6.15-2.2A1.259,1.259,0,0,0,89.705,99.741Z" transform="translate(-75.341 -87.375)" fill="#fff"/><path d="M171.465,88.731a1.26,1.26,0,0,0,.5-.106l.023-.01a1.259,1.259,0,1,0-1.017-2.3l-.02.009a1.259,1.259,0,0,0,.509,2.411Z" transform="translate(-154.708 -76.126)" fill="#fff"/><path d="M312.8,345.733a1.26,1.26,0,0,0-1.743.365,30.651,30.651,0,0,1-3.619,4.52,32.17,32.17,0,0,1-3.612,3.214,1.259,1.259,0,1,0,1.527,2,34.707,34.707,0,0,0,3.9-3.466,33.135,33.135,0,0,0,3.917-4.893A1.259,1.259,0,0,0,312.8,345.733Z" transform="translate(-272.271 -305.129)" fill="#fff"/><path d="M277.264,432.139l-.072.043a1.259,1.259,0,1,0,1.262,2.179l.083-.049a1.259,1.259,0,1,0-1.273-2.173Z" transform="translate(-248.633 -381.46)" fill="#fff"/><path d="M129.809,163.885a4.095,4.095,0,1,0-5.791,5.791l7.436,7.435a4.1,4.1,0,0,0,5.791,0l15.522-15.523a4.095,4.095,0,0,0-5.791-5.791l-12.627,12.627Zm18.948-6.306a1.576,1.576,0,1,1,2.229,2.229L135.464,175.33a1.577,1.577,0,0,1-2.23,0L125.8,167.9a1.576,1.576,0,0,1,2.229-2.229l5.43,5.43a1.259,1.259,0,0,0,1.781,0Z" transform="translate(-112.867 -136.523)" fill="#fff"/></g></g></g></g></g></svg>