<svg xmlns="http://www.w3.org/2000/svg" xmlns:xlink="http://www.w3.org/1999/xlink" width="45" height="45" viewBox="0 0 45 45"><defs><linearGradient id="a" x1="0.5" x2="0.5" y2="1" gradientUnits="objectBoundingBox"><stop offset="0" stop-color="#29abe2"/><stop offset="1" stop-color="#1e5caa"/></linearGradient><clipPath id="c"><rect width="45" height="45"/></clipPath></defs><g id="b" clip-path="url(#c)"><circle cx="22.5" cy="22.5" r="22.5" fill="url(#a)"/><g transform="translate(8.28 8.28)"><path d="M126.443,6.058a9.439,9.439,0,0,0-15.97-2.772.417.417,0,1,0,.632.544,8.606,8.606,0,0,1,14.62,2.685.57.57,0,0,0,.536.374h0a5.6,5.6,0,0,1,4.056,9.441.417.417,0,1,0,.605.573,6.429,6.429,0,0,0-4.479-10.845Z" transform="translate(-104.242 0)" fill="#fff"/><path d="M229.944,435.808v-.891a.417.417,0,1,0-.833,0v.891a1.527,1.527,0,1,0,.833,0Zm-.417,2.164a.694.694,0,1,1,.694-.694A.7.7,0,0,1,229.527,437.972Z" transform="translate(-215.336 -410.365)" fill="#fff"/><path d="M115.527,386.5a.417.417,0,0,0-.417.417v2.25a.361.361,0,0,1-.361.361H114a1.527,1.527,0,1,0,0,.833h.753a1.2,1.2,0,0,0,1.194-1.194v-2.25A.417.417,0,0,0,115.527,386.5Zm-3,4.138a.694.694,0,1,1,.694-.694A.7.7,0,0,1,112.527,390.638Z" transform="translate(-104.834 -365.032)" fill="#fff"/><path d="M24.134,100.9a1.53,1.53,0,0,0-1.469,1.111h-.753a.361.361,0,0,1-.361-.361V99.514c.675,0,1.067,0,1.09,0A6.355,6.355,0,0,0,25.01,98.8a.417.417,0,1,0-.389-.737,5.527,5.527,0,0,1-2.046.615c-.093,0-.615,0-1.44,0h0c-3.306,0-11.463-.012-16.21-.02a4,4,0,0,1-2.17-.62,4.193,4.193,0,0,1,1.558-7.655.567.567,0,0,0,.469-.543,8.531,8.531,0,0,1,1.03-3.857.417.417,0,0,0-.733-.4,9.346,9.346,0,0,0-1.121,4.017A5.026,5.026,0,0,0,2.3,98.742a4.831,4.831,0,0,0,2.621.753l1.909,0v2.155a.361.361,0,0,1-.361.361H5.718a1.528,1.528,0,1,0,0,.833h.753a1.2,1.2,0,0,0,1.194-1.194V99.5l2.611,0v1.067a.417.417,0,0,0,.833,0V99.5l2.666,0v3.728a.417.417,0,0,0,.833,0V99.509l2.666,0v5.252a1.2,1.2,0,0,0,1.194,1.194h.753a1.528,1.528,0,1,0,0-.833h-.753a.361.361,0,0,1-.361-.361V99.513h2.611v2.139a1.2,1.2,0,0,0,1.194,1.194h.753a1.527,1.527,0,1,0,1.469-1.944ZM4.249,103.125a.694.694,0,1,1,.694-.694A.7.7,0,0,1,4.249,103.125Zm16.441,1.722a.694.694,0,1,1-.694.694A.7.7,0,0,1,20.691,104.847Zm3.444-1.722a.694.694,0,1,1,.694-.694A.7.7,0,0,1,24.134,103.125Z" transform="translate(0 -80.629)" fill="#fff"/></g></g></svg>