<svg xmlns="http://www.w3.org/2000/svg" xmlns:xlink="http://www.w3.org/1999/xlink" width="99" height="99" viewBox="0 0 99 99"><defs><linearGradient id="a" x1="0.5" x2="0.5" y2="1" gradientUnits="objectBoundingBox"><stop offset="0" stop-color="#29abe2"/><stop offset="1" stop-color="#1e5caa"/></linearGradient><clipPath id="c"><rect width="99" height="99"/></clipPath></defs><g id="b" clip-path="url(#c)"><circle cx="49.5" cy="49.5" r="49.5" fill="url(#a)"/><g transform="translate(18.217 18.217)"><path d="M145.728,13.328a20.765,20.765,0,0,0-35.134-6.1.917.917,0,1,0,1.389,1.2,18.933,18.933,0,0,1,32.163,5.908,1.255,1.255,0,0,0,1.179.823h0a12.312,12.312,0,0,1,8.924,20.771.916.916,0,1,0,1.331,1.26,14.145,14.145,0,0,0-9.855-23.858Z" transform="translate(-96.885 0)" fill="#fff"/><path d="M232.277,437.378v-1.961a.917.917,0,0,0-1.833,0v1.961a3.361,3.361,0,1,0,1.833,0Zm-.917,4.76a1.527,1.527,0,1,1,1.527-1.527A1.529,1.529,0,0,1,231.36,442.137Z" transform="translate(-200.138 -381.404)" fill="#fff"/><path d="M120.959,386.5a.916.916,0,0,0-.917.917v4.949a.8.8,0,0,1-.794.794h-1.656a3.361,3.361,0,1,0,0,1.833h1.656a2.63,2.63,0,0,0,2.627-2.627v-4.949A.916.916,0,0,0,120.959,386.5Zm-6.6,9.1a1.527,1.527,0,1,1,1.527-1.527A1.529,1.529,0,0,1,114.36,395.6Z" transform="translate(-97.436 -339.27)" fill="#fff"/><path d="M53.1,119.542a3.366,3.366,0,0,0-3.232,2.444H48.208a.8.8,0,0,1-.794-.794v-4.706c1.484,0,2.347,0,2.4-.009a13.981,13.981,0,0,0,5.21-1.56.916.916,0,1,0-.856-1.621,12.159,12.159,0,0,1-4.5,1.353c-.2,0-1.354.005-3.167.005h0c-7.273,0-25.219-.027-35.663-.044a8.8,8.8,0,0,1-4.775-1.364A9.224,9.224,0,0,1,9.486,96.405a1.247,1.247,0,0,0,1.032-1.2,18.768,18.768,0,0,1,2.265-8.486.916.916,0,0,0-1.612-.872A20.56,20.56,0,0,0,8.7,94.689a11.058,11.058,0,0,0-3.639,20.1,10.629,10.629,0,0,0,5.766,1.657l4.2.007v4.742a.8.8,0,0,1-.794.794H12.581a3.361,3.361,0,1,0,0,1.833h1.656a2.63,2.63,0,0,0,2.627-2.627v-4.739l5.743.009v2.347a.917.917,0,1,0,1.833,0v-2.344l5.866.008v8.2a.916.916,0,0,0,1.833,0v-8.2l5.866.007v11.554a2.63,2.63,0,0,0,2.627,2.627h1.656a3.361,3.361,0,1,0,0-1.833H40.631a.8.8,0,0,1-.794-.794V116.483l5.742,0h0v4.706a2.63,2.63,0,0,0,2.627,2.627h1.656a3.36,3.36,0,1,0,3.232-4.277ZM9.348,124.43a1.528,1.528,0,1,1,1.528-1.528A1.529,1.529,0,0,1,9.348,124.43Zm36.171,3.788a1.528,1.528,0,1,1-1.528,1.527A1.529,1.529,0,0,1,45.519,128.218ZM53.1,124.43a1.528,1.528,0,1,1,1.528-1.528A1.529,1.529,0,0,1,53.1,124.43Z" transform="translate(0 -74.939)" fill="#fff"/></g></g></svg>