<svg id="Layer_1" data-name="Layer 1" xmlns="http://www.w3.org/2000/svg" viewBox="0 0 104.32 27"><defs><style>.cls-1{fill:#1e5caa;}</style></defs><title>Mobile_moneypex</title><path class="cls-1" d="M12.78,1.8A11.57,11.57,0,0,1,22.84,8.42a11.37,11.37,0,0,1-2,13A11.67,11.67,0,0,1,14,25,11.93,11.93,0,0,1,3.62,21.86a11.12,11.12,0,0,1-3.54-7A11.59,11.59,0,0,1,6.37,3.18,13.07,13.07,0,0,1,12.78,1.8ZM15.6,18.56c.07.11,0,.18,0,.24A17,17,0,0,0,15,21.88a6.51,6.51,0,0,0,.07,2c.09.35.38.64.61.64s.41-.21.52-.64c.36-1.48.76-3,1.26-4.42a17.78,17.78,0,0,1,.72-2.13,28.25,28.25,0,0,1,3.24-5.13c.05-.07.08-.14.19-.16v.16a19.24,19.24,0,0,1-1.34,4.35,9.72,9.72,0,0,1-1.48,2.37c-.17.21-.26.21-.38,0a.27.27,0,0,0-.49,0,.87.87,0,0,0,.28,1.21,1.26,1.26,0,0,0,1.43-.24,6.85,6.85,0,0,0,.63-.68,11.6,11.6,0,0,0,2.9-5.53,2.77,2.77,0,0,0-.5-2.57A.84.84,0,0,0,21.27,11a4.85,4.85,0,0,0-.69.81l-.94,1.35c0-.12,0-.23.05-.35A1.45,1.45,0,0,0,19,10.89c-.64-.47-.87-.42-1.14.34-.42,1.18-.78,2.35-1.18,3.53a7.39,7.39,0,0,1-.47,1.42c-.48.86-1,1.67-1.57,2.5,0,.06,0,.12-.14.14,0-.17,0-.34,0-.5a18.31,18.31,0,0,1,.22-3c.21-1.49.45-3,.76-4.46A.94.94,0,0,0,14.34,9.7a1.6,1.6,0,0,0-.83.44,8.57,8.57,0,0,0-1,1.15,25.85,25.85,0,0,0-1.74,2.78c0,.07,0,.17-.19.17a40.09,40.09,0,0,1,1.81-4.39,3.57,3.57,0,0,0,.38-.93,1.31,1.31,0,0,0-.55-1.3c-.4-.24-.73-.17-1.21.23A5.77,5.77,0,0,0,10,9a60.74,60.74,0,0,0-4,6.38c-.14.24-.28.5-.41.76a.12.12,0,0,1,0-.14c.25-1.05.57-2.09.91-3.12.69-2.13,1.44-4.24,2.16-6.37a3.65,3.65,0,0,0,.33-1.67A1.05,1.05,0,0,0,8.34,4a2.09,2.09,0,0,0-1.47-.14,5.81,5.81,0,0,0-3.27,2,12.45,12.45,0,0,0-3.08,7,1,1,0,0,0,.11.53,1.47,1.47,0,0,0,1,.83.83.83,0,0,0,1.24-.83c0-.27,0-.53,0-.81A11.54,11.54,0,0,1,4.55,7.07,5.42,5.42,0,0,1,6.68,5,.9.9,0,0,1,7,4.86c.24,0,.4.13.38.38a1.28,1.28,0,0,1-.21.64c-.22.41-.45.83-.65,1.24A47.68,47.68,0,0,0,3.64,14.4a9.41,9.41,0,0,0-.52,4.28,3.14,3.14,0,0,0,.52,1.49.85.85,0,0,0,1.48-.07,2.49,2.49,0,0,0,.35-.78,10.91,10.91,0,0,1,.72-1.93A55.78,55.78,0,0,1,9.77,11s0-.09.09-.07,0,.14,0,.19a16.39,16.39,0,0,0-1.14,4,1.88,1.88,0,0,0,1.45,2.23.6.6,0,0,0,.81-.52c0-.17.05-.34.09-.52A11.45,11.45,0,0,1,11.88,14a13.06,13.06,0,0,1,1.06-2c.05-.07.1-.16.19-.12s0,.15,0,.22c-.1.52-.22,1-.33,1.56a17.61,17.61,0,0,0-.52,5,7,7,0,0,0,.3,1.75,1,1,0,0,0,1.71.38,3.05,3.05,0,0,0,.5-.73C15,19.58,15.3,19.08,15.6,18.56Z"/><path class="cls-1" d="M30.34,7.63l3,6.42,3-6.42H39V18.42H37v-8.2l-3.06,7H32.65L29.49,10v8.43h-2V7.63Z"/><path class="cls-1" d="M45.06,10.12a4.55,4.55,0,0,1,1.53.26,3.18,3.18,0,0,1,1.23.79A4.38,4.38,0,0,1,49,14.4a4.33,4.33,0,0,1-1.15,3.19,3.67,3.67,0,0,1-2.76,1.06,3.77,3.77,0,0,1-2.79-1.06,4.34,4.34,0,0,1-1.15-3.19,4.39,4.39,0,0,1,1.15-3.23A3.77,3.77,0,0,1,45.06,10.12ZM47,14.38a3.12,3.12,0,0,0-.5-1.92,1.66,1.66,0,0,0-1.39-.64,1.83,1.83,0,0,0-1.45.64,2.82,2.82,0,0,0-.57,1.92,3.05,3.05,0,0,0,.51,1.92,1.67,1.67,0,0,0,1.39.64,1.83,1.83,0,0,0,1.44-.64A2.82,2.82,0,0,0,47,14.38Z"/><path class="cls-1" d="M53.06,11.74a2.92,2.92,0,0,1,4.81-.63,4.13,4.13,0,0,1,.75,2.59v4.72h-2V13.7a1.91,1.91,0,0,0-.43-1.36A1.6,1.6,0,0,0,55,11.89a1.67,1.67,0,0,0-1.34.69,3.48,3.48,0,0,0-.59,2.1v3.74h-2V10.34h1.71Z"/><path class="cls-1" d="M67.57,12.53a4.54,4.54,0,0,1,.21,1.28,6.68,6.68,0,0,1-.07,1H62.5a2.79,2.79,0,0,0,.48,1.6,1.57,1.57,0,0,0,1.36.61A1.3,1.3,0,0,0,65.79,16h2a2.89,2.89,0,0,1-1.11,1.91,3.65,3.65,0,0,1-2.31.73,3.54,3.54,0,0,1-2.68-1.16,4.44,4.44,0,0,1-1.11-3.11,4.39,4.39,0,0,1,1.11-3.13,3.53,3.53,0,0,1,2.68-1.13A3.15,3.15,0,0,1,67,11.3,3.75,3.75,0,0,1,67.57,12.53Zm-3.21-.84a1.62,1.62,0,0,0-1.3.54,2.45,2.45,0,0,0-.55,1.38H66a1.81,1.81,0,0,0-.83-1.76A1.61,1.61,0,0,0,64.36,11.69Z"/><path class="cls-1" d="M71,10.34l2,5.82,1.69-5.82h2L73.5,19.88A4.91,4.91,0,0,1,72.33,22a2.52,2.52,0,0,1-1.76.63,4.91,4.91,0,0,1-2.16-.53V20.33a3.3,3.3,0,0,0,1.75.55,1.17,1.17,0,0,0,1-.47,3.7,3.7,0,0,0,.61-1.21l.25-.78-3.24-8.08Z"/><path class="cls-1" d="M80,11.44a2.52,2.52,0,0,1,2.33-1.32,3.4,3.4,0,0,1,2.56,1.13A4.39,4.39,0,0,1,86,14.38a4.32,4.32,0,0,1-1.15,3.14,3.37,3.37,0,0,1-2.54,1.13,2.54,2.54,0,0,1-2.16-.88v4.59h-2v-12h1.61Zm2,5.43a1.94,1.94,0,0,0,.72-.15,1.91,1.91,0,0,0,.68-.46A2.62,2.62,0,0,0,84,14.39a2.74,2.74,0,0,0-.57-1.84,1.79,1.79,0,0,0-1.4-.66,1.88,1.88,0,0,0-1.34.47,1.83,1.83,0,0,0-.56,1.35v1.45a1.58,1.58,0,0,0,.55,1.26A1.84,1.84,0,0,0,81.94,16.87Z"/><path class="cls-1" d="M94.4,12.53a4.89,4.89,0,0,1,.2,1.28,8.27,8.27,0,0,1-.06,1H89.32a2.79,2.79,0,0,0,.48,1.6,1.57,1.57,0,0,0,1.36.61A1.3,1.3,0,0,0,92.61,16h2a2.94,2.94,0,0,1-1.12,1.91,3.65,3.65,0,0,1-2.31.73,3.51,3.51,0,0,1-2.67-1.16,4.44,4.44,0,0,1-1.12-3.11,4.39,4.39,0,0,1,1.12-3.13,3.53,3.53,0,0,1,2.67-1.13,3.15,3.15,0,0,1,2.61,1.18A3.77,3.77,0,0,1,94.4,12.53Zm-3.22-.84a1.63,1.63,0,0,0-1.3.54,2.38,2.38,0,0,0-.54,1.38h3.44a1.81,1.81,0,0,0-.84-1.76A1.61,1.61,0,0,0,91.18,11.69Z"/><path class="cls-1" d="M104.16,18.42h-2.39l-2-2.59-1.86,2.59H95.5l3.14-4L95.5,10.32h2.41l2,2.6,1.88-2.6h2.39L101,14.4Z"/></svg>